<svg width="107" height="24" viewBox="0 0 107 24" fill="none" xmlns="http://www.w3.org/2000/svg">
<path d="M6.34375 18.2344C5.35938 18.2344 4.47656 18.0781 3.69531 17.7656C2.91406 17.4453 2.25 17.0039 1.70312 16.4414C1.16406 15.8789 0.75 15.2266 0.460938 14.4844C0.171875 13.7344 0.0273438 12.9375 0.0273438 12.0938V11.625C0.0273438 10.6641 0.164062 9.78516 0.4375 8.98828C0.710938 8.19141 1.10156 7.5 1.60938 6.91406C2.125 6.32812 2.75 5.87891 3.48438 5.56641C4.21875 5.24609 5.04688 5.08594 5.96875 5.08594C6.86719 5.08594 7.66406 5.23438 8.35938 5.53125C9.05469 5.82812 9.63672 6.25 10.1055 6.79688C10.582 7.34375 10.9414 8 11.1836 8.76562C11.4258 9.52344 11.5469 10.3672 11.5469 11.2969V12.7031H1.46875V10.4531H8.23047V10.1953C8.23047 9.72656 8.14453 9.30859 7.97266 8.94141C7.80859 8.56641 7.55859 8.26953 7.22266 8.05078C6.88672 7.83203 6.45703 7.72266 5.93359 7.72266C5.48828 7.72266 5.10547 7.82031 4.78516 8.01562C4.46484 8.21094 4.20312 8.48438 4 8.83594C3.80469 9.1875 3.65625 9.60156 3.55469 10.0781C3.46094 10.5469 3.41406 11.0625 3.41406 11.625V12.0938C3.41406 12.6016 3.48438 13.0703 3.625 13.5C3.77344 13.9297 3.98047 14.3008 4.24609 14.6133C4.51953 14.9258 4.84766 15.168 5.23047 15.3398C5.62109 15.5117 6.0625 15.5977 6.55469 15.5977C7.16406 15.5977 7.73047 15.4805 8.25391 15.2461C8.78516 15.0039 9.24219 14.6406 9.625 14.1562L11.2656 15.9375C11 16.3203 10.6367 16.6875 10.1758 17.0391C9.72266 17.3906 9.17578 17.6797 8.53516 17.9062C7.89453 18.125 7.16406 18.2344 6.34375 18.2344ZM16.8438 7.75781V22.875H13.4688V5.32031H16.5977L16.8438 7.75781ZM24.8711 11.5195V11.7656C24.8711 12.6875 24.7617 13.543 24.543 14.332C24.332 15.1211 24.0195 15.8086 23.6055 16.3945C23.1914 16.9727 22.6758 17.4258 22.0586 17.7539C21.4492 18.0742 20.7461 18.2344 19.9492 18.2344C19.1758 18.2344 18.5039 18.0781 17.9336 17.7656C17.3633 17.4531 16.8828 17.0156 16.4922 16.4531C16.1094 15.8828 15.8008 15.2227 15.5664 14.4727C15.332 13.7227 15.1523 12.918 15.0273 12.0586V11.4141C15.1523 10.4922 15.332 9.64844 15.5664 8.88281C15.8008 8.10938 16.1094 7.44141 16.4922 6.87891C16.8828 6.30859 17.3594 5.86719 17.9219 5.55469C18.4922 5.24219 19.1602 5.08594 19.9258 5.08594C20.7305 5.08594 21.4375 5.23828 22.0469 5.54297C22.6641 5.84766 23.1797 6.28516 23.5938 6.85547C24.0156 7.42578 24.332 8.10547 24.543 8.89453C24.7617 9.68359 24.8711 10.5586 24.8711 11.5195ZM21.4844 11.7656V11.5195C21.4844 10.9805 21.4375 10.4844 21.3438 10.0312C21.2578 9.57031 21.1172 9.16797 20.9219 8.82422C20.7344 8.48047 20.4844 8.21484 20.1719 8.02734C19.8672 7.83203 19.4961 7.73438 19.0586 7.73438C18.5977 7.73438 18.2031 7.80859 17.875 7.95703C17.5547 8.10547 17.293 8.32031 17.0898 8.60156C16.8867 8.88281 16.7344 9.21875 16.6328 9.60938C16.5312 10 16.4688 10.4414 16.4453 10.9336V12.5625C16.4844 13.1406 16.5938 13.6602 16.7734 14.1211C16.9531 14.5742 17.2305 14.9336 17.6055 15.1992C17.9805 15.4648 18.4727 15.5977 19.082 15.5977C19.5273 15.5977 19.9023 15.5 20.207 15.3047C20.5117 15.1016 20.7578 14.8242 20.9453 14.4727C21.1406 14.1211 21.2773 13.7148 21.3555 13.2539C21.4414 12.793 21.4844 12.2969 21.4844 11.7656ZM30.5312 5.32031V18H27.1445V5.32031H30.5312ZM26.9336 2.01562C26.9336 1.52344 27.1055 1.11719 27.4492 0.796875C27.793 0.476563 28.2539 0.316406 28.832 0.316406C29.4023 0.316406 29.8594 0.476563 30.2031 0.796875C30.5547 1.11719 30.7305 1.52344 30.7305 2.01562C30.7305 2.50781 30.5547 2.91406 30.2031 3.23438C29.8594 3.55469 29.4023 3.71484 28.832 3.71484C28.2539 3.71484 27.793 3.55469 27.4492 3.23438C27.1055 2.91406 26.9336 2.50781 26.9336 2.01562ZM38.5586 15.5977C38.9727 15.5977 39.3398 15.5195 39.6602 15.3633C39.9805 15.1992 40.2305 14.9727 40.4102 14.6836C40.5977 14.3867 40.6953 14.0391 40.7031 13.6406H43.8789C43.8711 14.5312 43.6328 15.3242 43.1641 16.0195C42.6953 16.707 42.0664 17.25 41.2773 17.6484C40.4883 18.0391 39.6055 18.2344 38.6289 18.2344C37.6445 18.2344 36.7852 18.0703 36.0508 17.7422C35.3242 17.4141 34.7188 16.9609 34.2344 16.3828C33.75 15.7969 33.3867 15.1172 33.1445 14.3438C32.9023 13.5625 32.7812 12.7266 32.7812 11.8359V11.4961C32.7812 10.5977 32.9023 9.76172 33.1445 8.98828C33.3867 8.20703 33.75 7.52734 34.2344 6.94922C34.7188 6.36328 35.3242 5.90625 36.0508 5.57812C36.7773 5.25 37.6289 5.08594 38.6055 5.08594C39.6445 5.08594 40.5547 5.28516 41.3359 5.68359C42.125 6.08203 42.7422 6.65234 43.1875 7.39453C43.6406 8.12891 43.8711 9 43.8789 10.0078H40.7031C40.6953 9.58594 40.6055 9.20312 40.4336 8.85938C40.2695 8.51562 40.0273 8.24219 39.707 8.03906C39.3945 7.82812 39.0078 7.72266 38.5469 7.72266C38.0547 7.72266 37.6523 7.82812 37.3398 8.03906C37.0273 8.24219 36.7852 8.52344 36.6133 8.88281C36.4414 9.23438 36.3203 9.63672 36.25 10.0898C36.1875 10.5352 36.1562 11.0039 36.1562 11.4961V11.8359C36.1562 12.3281 36.1875 12.8008 36.25 13.2539C36.3125 13.707 36.4297 14.1094 36.6016 14.4609C36.7812 14.8125 37.0273 15.0898 37.3398 15.293C37.6523 15.4961 38.0586 15.5977 38.5586 15.5977Z" fill="#F06A6A"/>
<path d="M53.2539 0.9375V21.1641H52.6211V0.9375H53.2539ZM70.5508 5.32031H73.6094V17.5781C73.6094 18.7344 73.3516 19.7148 72.8359 20.5195C72.3281 21.332 71.6172 21.9453 70.7031 22.3594C69.7891 22.7812 68.7266 22.9922 67.5156 22.9922C66.9844 22.9922 66.4219 22.9219 65.8281 22.7812C65.2422 22.6406 64.6797 22.4219 64.1406 22.125C63.6094 21.8281 63.1641 21.4531 62.8047 21L64.293 19.0078C64.6836 19.4609 65.1367 19.8125 65.6523 20.0625C66.168 20.3203 66.7383 20.4492 67.3633 20.4492C67.9727 20.4492 68.4883 20.3359 68.9102 20.1094C69.332 19.8906 69.6562 19.5664 69.8828 19.1367C70.1094 18.7148 70.2227 18.2031 70.2227 17.6016V8.25L70.5508 5.32031ZM62.0195 11.8125V11.5664C62.0195 10.5977 62.1367 9.71875 62.3711 8.92969C62.6133 8.13281 62.9531 7.44922 63.3906 6.87891C63.8359 6.30859 64.375 5.86719 65.0078 5.55469C65.6406 5.24219 66.3555 5.08594 67.1523 5.08594C67.9961 5.08594 68.7031 5.24219 69.2734 5.55469C69.8438 5.86719 70.3125 6.3125 70.6797 6.89062C71.0469 7.46094 71.332 8.13672 71.5352 8.91797C71.7461 9.69141 71.9102 10.5391 72.0273 11.4609V12C71.9102 12.8828 71.7344 13.7031 71.5 14.4609C71.2656 15.2188 70.957 15.8828 70.5742 16.4531C70.1914 17.0156 69.7148 17.4531 69.1445 17.7656C68.582 18.0781 67.9102 18.2344 67.1289 18.2344C66.3477 18.2344 65.6406 18.0742 65.0078 17.7539C64.3828 17.4336 63.8477 16.9844 63.4023 16.4062C62.957 15.8281 62.6133 15.1484 62.3711 14.3672C62.1367 13.5859 62.0195 12.7344 62.0195 11.8125ZM65.3945 11.5664V11.8125C65.3945 12.3359 65.4453 12.8242 65.5469 13.2773C65.6484 13.7305 65.8047 14.1328 66.0156 14.4844C66.2344 14.8281 66.5039 15.0977 66.8242 15.293C67.1523 15.4805 67.5391 15.5742 67.9844 15.5742C68.6016 15.5742 69.1055 15.4453 69.4961 15.1875C69.8867 14.9219 70.1797 14.5586 70.375 14.0977C70.5703 13.6367 70.6836 13.1055 70.7148 12.5039V10.9688C70.6992 10.4766 70.6328 10.0352 70.5156 9.64453C70.3984 9.24609 70.2344 8.90625 70.0234 8.625C69.8125 8.34375 69.5391 8.125 69.2031 7.96875C68.8672 7.8125 68.4688 7.73438 68.0078 7.73438C67.5625 7.73438 67.1758 7.83594 66.8477 8.03906C66.5273 8.23438 66.2578 8.50391 66.0391 8.84766C65.8281 9.19141 65.668 9.59766 65.5586 10.0664C65.4492 10.5273 65.3945 11.0273 65.3945 11.5664ZM79.9961 16.5703L83.3594 5.32031H86.9805L81.8828 19.9102C81.7734 20.2305 81.625 20.5742 81.4375 20.9414C81.2578 21.3086 81.0117 21.6562 80.6992 21.9844C80.3945 22.3203 80.0078 22.5938 79.5391 22.8047C79.0781 23.0156 78.5117 23.1211 77.8398 23.1211C77.5195 23.1211 77.2578 23.1016 77.0547 23.0625C76.8516 23.0234 76.6094 22.9688 76.3281 22.8984V20.4258C76.4141 20.4258 76.5039 20.4258 76.5977 20.4258C76.6914 20.4336 76.7812 20.4375 76.8672 20.4375C77.3125 20.4375 77.6758 20.3867 77.957 20.2852C78.2383 20.1836 78.4648 20.0273 78.6367 19.8164C78.8086 19.6133 78.9453 19.3477 79.0469 19.0195L79.9961 16.5703ZM78.5898 5.32031L81.3438 14.5078L81.8242 18.082L79.5273 18.3281L74.9688 5.32031H78.5898ZM91.7031 7.94531V18H88.3164V5.32031H91.4922L91.7031 7.94531ZM91.2344 11.2148H90.2969C90.2969 10.332 90.4023 9.51953 90.6133 8.77734C90.832 8.02734 91.1484 7.37891 91.5625 6.83203C91.9844 6.27734 92.5039 5.84766 93.1211 5.54297C93.7383 5.23828 94.4531 5.08594 95.2656 5.08594C95.8281 5.08594 96.3438 5.17188 96.8125 5.34375C97.2812 5.50781 97.6836 5.76953 98.0195 6.12891C98.3633 6.48047 98.6289 6.94141 98.8164 7.51172C99.0039 8.07422 99.0977 8.75 99.0977 9.53906V18H95.7227V9.91406C95.7227 9.33594 95.6445 8.89062 95.4883 8.57812C95.332 8.26562 95.1094 8.04688 94.8203 7.92188C94.5391 7.79688 94.1992 7.73438 93.8008 7.73438C93.3633 7.73438 92.9805 7.82422 92.6523 8.00391C92.332 8.18359 92.0664 8.43359 91.8555 8.75391C91.6445 9.06641 91.4883 9.43359 91.3867 9.85547C91.2852 10.2773 91.2344 10.7305 91.2344 11.2148ZM98.7812 10.8281L97.5742 10.9805C97.5742 10.1523 97.6758 9.38281 97.8789 8.67188C98.0898 7.96094 98.3984 7.33594 98.8047 6.79688C99.2188 6.25781 99.7305 5.83984 100.34 5.54297C100.949 5.23828 101.652 5.08594 102.449 5.08594C103.059 5.08594 103.613 5.17578 104.113 5.35547C104.613 5.52734 105.039 5.80469 105.391 6.1875C105.75 6.5625 106.023 7.05469 106.211 7.66406C106.406 8.27344 106.504 9.01953 106.504 9.90234V18H103.117V9.90234C103.117 9.31641 103.039 8.87109 102.883 8.56641C102.734 8.25391 102.516 8.03906 102.227 7.92188C101.945 7.79688 101.609 7.73438 101.219 7.73438C100.812 7.73438 100.457 7.81641 100.152 7.98047C99.8477 8.13672 99.5938 8.35547 99.3906 8.63672C99.1875 8.91797 99.0352 9.24609 98.9336 9.62109C98.832 9.98828 98.7812 10.3906 98.7812 10.8281Z" fill="black"/>
</svg>
