<?xml version="1.0" encoding="utf-8"?>
<!-- Generator: Adobe Illustrator 26.0.0, SVG Export Plug-In . SVG Version: 6.00 Build 0)  -->
<svg version="1.1" id="Layer_1" xmlns="http://www.w3.org/2000/svg" xmlns:xlink="http://www.w3.org/1999/xlink" x="0px" y="0px"
	 viewBox="0 0 118 118" style="enable-background:new 0 0 118 118;" xml:space="preserve">
<style type="text/css">
	.st0{fill:#E5E5E5;}
	.st1{fill:#E6E7E8;}
</style>
<circle class="st0" cx="59" cy="59" r="59"/>
<g>
	<g>
		<polygon class="st1" points="27.66,63.67 27.69,54.31 33.36,54.33 33.34,55.2 33.34,56.2 84.67,56.2 84.67,54.31 90.34,54.33 
			90.31,63.67 84.64,63.67 84.67,62.8 84.67,61.8 33.34,61.8 33.34,63.69 		"/>
		<g>
			<path d="M89.31,55.33v7.34h-3.65V60.8h-2h-23.7h-1.93h-23.7h-2v1.87h-3.65v-7.34h3.65v1.87h2h23.7h1.93h23.7h2v-1.87H89.31
				 M90.34,53.33h-5.7c-0.54,0-0.97,0.44-0.97,0.98v0.89h-23.7h-1.93h-23.7v-0.89c0-0.54-0.44-0.98-0.97-0.98h-5.7
				c-0.54,0-0.97,0.44-0.97,0.98v9.38c0,0.54,0.44,0.98,0.97,0.98h5.7c0.54,0,0.97-0.44,0.97-0.98V62.8h23.7h1.93h23.7v0.89
				c0,0.54,0.44,0.98,0.97,0.98h5.7c0.54,0,0.97-0.44,0.97-0.98v-9.38C91.31,53.77,90.88,53.33,90.34,53.33L90.34,53.33z"/>
		</g>
	</g>
	<g>
		<path class="st1" d="M42.93,74.29c-1.54,0-2.8-1.26-2.8-2.8V46.5c0-1.54,1.26-2.8,2.8-2.8h3.96c1.54,0,2.8,1.25,2.8,2.8V71.5
			c0,1.54-1.25,2.8-2.8,2.8H42.93z"/>
		<path d="M46.89,44.71c0.99,0,1.8,0.81,1.8,1.8V71.5c0,0.99-0.81,1.8-1.8,1.8h-3.96c-0.99,0-1.8-0.81-1.8-1.8V46.5
			c0-0.99,0.81-1.8,1.8-1.8H46.89 M46.89,42.71h-3.96c-2.1,0-3.8,1.7-3.8,3.8V71.5c0,2.1,1.7,3.8,3.8,3.8h3.96
			c2.1,0,3.8-1.7,3.8-3.8V46.5C50.69,44.41,48.99,42.71,46.89,42.71L46.89,42.71z"/>
	</g>
	<g>
		<path class="st1" d="M35.1,70.57c-1.05,0-1.9-0.85-1.9-1.9V49.33c0-1.05,0.85-1.9,1.9-1.9h3.11c1.05,0,1.9,0.85,1.9,1.9v19.33
			c0,1.05-0.85,1.9-1.9,1.9H35.1z"/>
		<path d="M38.21,48.43c0.5,0,0.9,0.41,0.9,0.9v19.33c0,0.5-0.41,0.9-0.9,0.9H35.1c-0.5,0-0.9-0.41-0.9-0.9V49.33
			c0-0.5,0.41-0.9,0.9-0.9H38.21 M38.21,46.43H35.1c-1.6,0-2.9,1.3-2.9,2.9v19.33c0,1.6,1.3,2.9,2.9,2.9h3.11c1.6,0,2.9-1.3,2.9-2.9
			V49.33C41.11,47.73,39.81,46.43,38.21,46.43L38.21,46.43z"/>
	</g>
	<g>
		<path class="st1" d="M71.11,74.29c-1.54,0-2.8-1.26-2.8-2.8V46.5c0-1.54,1.25-2.8,2.8-2.8h3.96c1.54,0,2.8,1.25,2.8,2.8V71.5
			c0,1.54-1.25,2.8-2.8,2.8H71.11z"/>
		<path d="M75.08,44.71c0.99,0,1.8,0.81,1.8,1.8V71.5c0,0.99-0.81,1.8-1.8,1.8h-3.96c-0.99,0-1.8-0.81-1.8-1.8V46.5
			c0-0.99,0.81-1.8,1.8-1.8H75.08 M75.08,42.71h-3.96c-2.1,0-3.8,1.7-3.8,3.8V71.5c0,2.1,1.7,3.8,3.8,3.8h3.96
			c2.1,0,3.8-1.7,3.8-3.8V46.5C78.88,44.41,77.18,42.71,75.08,42.71L75.08,42.71z"/>
	</g>
	<g>
		<path class="st1" d="M79.8,70.57c-1.05,0-1.9-0.85-1.9-1.9V49.33c0-1.05,0.85-1.9,1.9-1.9h3.11c1.05,0,1.9,0.85,1.9,1.9v19.33
			c0,1.05-0.85,1.9-1.9,1.9H79.8z"/>
		<path d="M82.91,48.43c0.5,0,0.9,0.41,0.9,0.9v19.33c0,0.5-0.41,0.9-0.9,0.9H79.8c-0.5,0-0.9-0.41-0.9-0.9V49.33
			c0-0.5,0.41-0.9,0.9-0.9H82.91 M82.91,46.43H79.8c-1.6,0-2.9,1.3-2.9,2.9v19.33c0,1.6,1.3,2.9,2.9,2.9h3.11c1.6,0,2.9-1.3,2.9-2.9
			V49.33C85.81,47.73,84.51,46.43,82.91,46.43L82.91,46.43z"/>
	</g>
</g>
</svg>
