<?xml version="1.0" encoding="utf-8"?>
<!-- Generator: Adobe Illustrator 26.0.0, SVG Export Plug-In . SVG Version: 6.00 Build 0)  -->
<svg version="1.1" id="Layer_1" xmlns="http://www.w3.org/2000/svg" xmlns:xlink="http://www.w3.org/1999/xlink" x="0px" y="0px"
	 viewBox="0 0 118 118" style="enable-background:new 0 0 118 118;" xml:space="preserve">
<style type="text/css">
	.st0{fill:#E5E5E5;}
	.st1{fill:#E6E7E8;}
</style>
<circle class="st0" cx="59" cy="59" r="59"/>
<g>
	<g>
		<polygon class="st1" points="80.22,63.67 80.21,62.8 80.21,61.8 37.79,61.8 37.79,63.67 33.54,63.67 33.52,54.33 37.78,54.33 
			37.79,55.2 37.79,56.2 80.21,56.2 80.21,54.33 84.46,54.33 84.48,63.67 		"/>
		<g>
			<path d="M83.48,55.33v7.34h-2.27V60.8h-2H59.79h-1.59H38.79h-2v1.87h-2.27v-7.34h2.27v1.87h2h19.42h1.59h19.42h2v-1.87H83.48
				 M84.68,53.33h-4.67c-0.44,0-0.8,0.44-0.8,0.98v0.89H59.79h-1.59H38.79v-0.89c0-0.54-0.36-0.98-0.8-0.98h-4.67
				c-0.44,0-0.8,0.44-0.8,0.98v9.38c0,0.54,0.36,0.98,0.8,0.98h4.67c0.44,0,0.8-0.44,0.8-0.98V62.8h19.42h1.59h19.42v0.89
				c0,0.54,0.36,0.98,0.8,0.98h4.67c0.44,0,0.8-0.44,0.8-0.98v-9.38C85.48,53.77,85.12,53.33,84.68,53.33L84.68,53.33z"/>
		</g>
	</g>
	<g>
		<g>
			<path class="st1" d="M40.43,74.29c-1.54,0-2.8-1.26-2.8-2.8V46.5c0-1.54,1.25-2.8,2.8-2.8h3.96c1.54,0,2.8,1.25,2.8,2.8V71.5
				c0,1.54-1.26,2.8-2.8,2.8H40.43z"/>
			<path d="M44.39,44.71c0.99,0,1.8,0.81,1.8,1.8V71.5c0,0.99-0.81,1.8-1.8,1.8h-3.96c-0.99,0-1.8-0.81-1.8-1.8V46.5
				c0-0.99,0.81-1.8,1.8-1.8H44.39 M44.39,42.71h-3.96c-2.1,0-3.8,1.7-3.8,3.8V71.5c0,2.1,1.7,3.8,3.8,3.8h3.96
				c2.1,0,3.8-1.7,3.8-3.8V46.5C48.19,44.41,46.49,42.71,44.39,42.71L44.39,42.71z"/>
		</g>
		<g>
			<path class="st1" d="M73.61,74.29c-1.54,0-2.8-1.26-2.8-2.8V46.5c0-1.54,1.25-2.8,2.8-2.8h3.96c1.54,0,2.8,1.25,2.8,2.8V71.5
				c0,1.54-1.25,2.8-2.8,2.8H73.61z"/>
			<path d="M77.57,44.71c0.99,0,1.8,0.81,1.8,1.8V71.5c0,0.99-0.81,1.8-1.8,1.8h-3.96c-0.99,0-1.8-0.81-1.8-1.8V46.5
				c0-0.99,0.81-1.8,1.8-1.8H77.57 M77.57,42.71h-3.96c-2.1,0-3.8,1.7-3.8,3.8V71.5c0,2.1,1.7,3.8,3.8,3.8h3.96
				c2.1,0,3.8-1.7,3.8-3.8V46.5C81.37,44.41,79.67,42.71,77.57,42.71L77.57,42.71z"/>
		</g>
	</g>
</g>
</svg>
